<svg xmlns="http://www.w3.org/2000/svg" xmlns:xlink="http://www.w3.org/1999/xlink" width="220.275" height="79.684" viewBox="0 0 58.281 21.083"><defs><linearGradient id="a"><stop offset="0" style="stop-color:#ebedff;stop-opacity:1"/><stop offset="1" style="stop-color:#fff;stop-opacity:1"/></linearGradient><linearGradient xlink:href="#a" id="c" x1="51.308" x2="67.498" y1="17.438" y2="51.832" gradientTransform="matrix(1.4477 0 0 1.4477 -6.507 -12.204)" gradientUnits="userSpaceOnUse"/><filter id="b" width="1.041" height="1.123" x="-.021" y="-.061" style="color-interpolation-filters:sRGB"><feGaussianBlur stdDeviation=".332"/></filter></defs><g transform="translate(-49.426 -22.274)"><rect width="38.663" height="12.968" x="50.224" y="23.071" ry="4.027" style="mix-blend-mode:normal;fill:#000;fill-opacity:.45339;stroke-width:.264583;filter:url(#b)" transform="matrix(1.4477 0 0 1.4477 -22.129 -9.972)"/><rect width="55.972" height="18.774" x="49.815" y="22.662" ry="5.83" style="fill:url(#c);fill-opacity:1;stroke-width:.383039"/><path d="M74.462 35.864V25.538h3.708v3.34q.307-.169.812-.291.521-.138 1.088-.138 1.547 0 2.268.72.72.72.72 2.221v4.474H79.35v-4.167q0-.521-.506-.521-.153 0-.367.092-.2.092-.307.214v4.382zM86.26 36.017q-1.226 0-1.946-.72t-.72-2.099v-4.596h3.708V32.8q0 .49.505.49.169 0 .368-.092.2-.092.306-.214v-4.382h3.708v7.262h-3.478l-.076-.413q-.399.245-1.027.413-.613.153-1.348.153zM96.295 38.56q-.536 0-1.21-.045-.674-.03-1.287-.123-.613-.076-.965-.199V36.08q.413.138.98.214.567.092 1.165.123.597.046 1.088.046.582 0 1.026-.046.445-.046.445-.2 0-.122-.184-.153-.169-.015-.46-.015h-1.747q-1.271 0-1.93-.337-.644-.337-.644-1.088 0-.536.322-.888.322-.368.889-.537-.613-.321-.889-.781t-.276-1.21q0-1.425 1.042-2.084 1.042-.674 2.927-.674.275 0 .612.03.353.016.644.062.306.03.444.06h2.957l-.061 2.192h-.797q.031.092.062.23.03.122.03.23 0 1.118-.613 1.761-.597.629-2.007.629h-.383q-.23-.016-.398-.031-.215.015-.399.077-.168.046-.168.199 0 .122.107.168.107.031.291.031h1.287q1.134 0 1.824.506.689.49.689 1.562 0 1.058-1.042 1.732-1.026.674-3.37.674zm.322-6.91q.43 0 .582-.137.169-.138.169-.46 0-.337-.184-.475-.168-.153-.567-.153-.75 0-.75.628 0 .307.168.46.169.138.582.138z" style="fill:#ff109b"/><path d="M57.759 38.56q-.536 0-1.134-.045-.597-.046-1.134-.138-.536-.092-.919-.215v-1.685q.613.2 1.47.307.859.107 1.579.107.935 0 1.394-.107.475-.092.475-.338 0-.214-.184-.29-.184-.077-.72-.077H56.58q-.98 0-1.532-.353-.536-.352-.536-1.026 0-.46.275-.874.292-.413.843-.612-.628-.322-.95-.812-.322-.49-.322-1.241 0-1.41.904-2.054.92-.658 2.682-.658.367 0 .812.06.46.047.674.093h2.788l-.06 1.532h-1.058q.383.383.383 1.134 0 1.057-.69 1.7-.674.644-2.053.644-.23 0-.46-.015-.214-.031-.428-.046-.399.046-.69.168-.275.123-.275.353 0 .183.137.245.154.061.445.061h1.854q1.118 0 1.731.521.628.506.628 1.486 0 2.176-3.922 2.176zm.199-6.312q.812 0 1.118-.275.307-.276.307-.92 0-.643-.322-.934-.306-.291-1.103-.291-.75 0-1.088.29-.322.276-.322.935 0 .613.307.904.306.291 1.103.291zM63.367 27.453v-1.854h2.68v1.854zm.199 8.411v-5.439h-1.073l.215-1.823h3.324v7.262zM69.78 38.56q-.536 0-1.133-.045-.598-.046-1.134-.138-.536-.092-.92-.215v-1.685q.614.2 1.472.307.858.107 1.578.107.934 0 1.394-.107.475-.092.475-.338 0-.214-.184-.29-.184-.077-.72-.077h-2.007q-.98 0-1.532-.353-.536-.352-.536-1.026 0-.46.275-.874.291-.413.843-.612-.628-.322-.95-.812-.322-.49-.322-1.241 0-1.41.904-2.054.92-.658 2.682-.658.367 0 .812.06.46.047.674.093h2.788l-.061 1.532h-1.057q.383.383.383 1.134 0 1.057-.69 1.7-.674.644-2.053.644-.23 0-.46-.015-.214-.031-.428-.046-.399.046-.69.168-.276.123-.276.353 0 .183.138.245.153.061.445.061h1.853q1.119 0 1.732.521.628.506.628 1.486 0 2.176-3.922 2.176zm.2-6.312q.812 0 1.118-.275.307-.276.307-.92 0-.643-.322-.934-.306-.291-1.103-.291-.75 0-1.088.29-.322.276-.322.935 0 .613.307.904.306.291 1.103.291z"/></g></svg>