<svg width="268.662" height="79.684" viewBox="0 0 71.083 21.083" xml:space="preserve" xmlns:xlink="http://www.w3.org/1999/xlink" xmlns="http://www.w3.org/2000/svg"><defs><linearGradient id="a"><stop style="stop-color:#ebedff;stop-opacity:1" offset="0"/><stop style="stop-color:#fff;stop-opacity:1" offset="1"/></linearGradient><linearGradient xlink:href="#a" id="c" x1="51.308" y1="17.438" x2="67.498" y2="51.832" gradientUnits="userSpaceOnUse" gradientTransform="matrix(1.77418 0 0 1.4477 -26.566 -14.026)"/><filter style="color-interpolation-filters:sRGB" id="b" x="-.021" y="-.061" width="1.041" height="1.123"><feGaussianBlur stdDeviation=".332"/></filter></defs><g transform="translate(-41.888 -20.452)"><rect style="mix-blend-mode:normal;fill:#000;fill-opacity:.45339;stroke-width:.264583;filter:url(#b)" width="38.663" height="12.968" x="50.224" y="23.071" ry="4.027" transform="matrix(1.76572 0 0 1.4477 -45.385 -11.794)"/><rect style="fill:url(#c);fill-opacity:1;stroke-width:.424035" width="68.594" height="18.774" x="42.457" y="20.84" ry="5.83"/><g aria-label="hug" style="fill:#ff109b"><path d="M79.726 34.042V23.715h3.708v3.34q.307-.168.812-.29.521-.139 1.088-.139 1.547 0 2.268.72.72.72.72 2.222v4.474h-3.708v-4.167q0-.521-.506-.521-.153 0-.367.092-.2.092-.307.214v4.382zM91.524 34.195q-1.226 0-1.946-.72t-.72-2.099V26.78h3.708v4.198q0 .49.505.49.169 0 .368-.092.2-.092.306-.214V26.78h3.708v7.262h-3.478l-.076-.414q-.399.246-1.027.414-.613.153-1.348.153zM101.56 36.739q-.537 0-1.21-.046-.675-.03-1.288-.123-.613-.076-.965-.199v-2.114q.413.137.98.214.567.092 1.165.123.597.046 1.088.046.582 0 1.026-.046.445-.046.445-.2 0-.122-.184-.153-.169-.015-.46-.015h-1.747q-1.271 0-1.93-.337-.644-.337-.644-1.088 0-.536.322-.889.322-.367.889-.536-.613-.322-.889-.781-.276-.46-.276-1.21 0-1.426 1.042-2.084 1.042-.675 2.927-.675.275 0 .612.031.353.015.644.061.306.031.444.062h2.957l-.061 2.19h-.797q.031.093.062.23.03.123.03.23 0 1.119-.613 1.762-.597.628-2.007.628h-.383q-.23-.015-.398-.03-.215.015-.398.076-.169.046-.169.2 0 .122.107.168.107.03.291.03h1.287q1.134 0 1.824.506.69.49.69 1.563 0 1.057-1.043 1.732-1.026.674-3.37.674zm.321-6.91q.43 0 .582-.138.169-.138.169-.46 0-.337-.184-.475-.168-.153-.567-.153-.75 0-.75.628 0 .307.168.46.169.138.582.138z"/></g><g aria-label="gig"><path d="M63.023 36.739q-.536 0-1.134-.046-.597-.046-1.134-.138-.536-.092-.919-.215v-1.685q.613.2 1.47.306.859.108 1.579.108.935 0 1.394-.108.475-.092.475-.337 0-.214-.184-.29-.184-.077-.72-.077h-2.007q-.98 0-1.532-.353-.536-.352-.536-1.026 0-.46.275-.874.292-.413.843-.613-.628-.321-.95-.812-.322-.49-.322-1.24 0-1.41.904-2.054.92-.659 2.682-.659.367 0 .812.062.46.046.674.092h2.788l-.06 1.532h-1.058q.383.383.383 1.134 0 1.057-.69 1.7-.674.644-2.053.644-.23 0-.46-.016-.214-.03-.428-.045-.399.045-.69.168-.275.123-.275.352 0 .184.137.246.154.06.445.06h1.854q1.118 0 1.731.522.628.505.628 1.486 0 2.176-3.922 2.176zm.199-6.313q.812 0 1.119-.276.306-.275.306-.919 0-.643-.322-.934-.306-.292-1.103-.292-.75 0-1.088.292-.322.275-.322.934 0 .613.307.904.306.291 1.103.291zM68.83 34.042v-5.44h-1.073l.215-1.822h3.324v7.262zM75.045 36.739q-.537 0-1.134-.046-.598-.046-1.134-.138-.536-.092-.92-.215v-1.685q.614.2 1.472.306.858.108 1.578.108.934 0 1.394-.108.475-.092.475-.337 0-.214-.184-.29-.184-.077-.72-.077h-2.007q-.98 0-1.532-.353-.536-.352-.536-1.026 0-.46.275-.874.291-.413.843-.613-.628-.321-.95-.812-.322-.49-.322-1.24 0-1.41.904-2.054.92-.659 2.682-.659.367 0 .812.062.46.046.674.092h2.788l-.061 1.532h-1.057q.383.383.383 1.134 0 1.057-.69 1.7-.674.644-2.053.644-.23 0-.46-.016-.214-.03-.428-.045-.399.045-.69.168-.276.123-.276.352 0 .184.138.246.153.06.445.06h1.854q1.118 0 1.73.522.629.505.629 1.486 0 2.176-3.922 2.176zm.199-6.313q.812 0 1.118-.276.307-.275.307-.919 0-.643-.322-.934-.306-.292-1.103-.292-.75 0-1.088.292-.322.275-.322.934 0 .613.307.904.306.291 1.103.291z"/></g><path style="fill:#000;fill-opacity:1;stroke-width:.941374" d="M70 26.37c.556 0 .94-.095 1.15-.284.209-.189.314-.503.314-.944 0-.44-.11-.76-.33-.96-.21-.2-.588-.299-1.134-.299-.514 0-.886.1-1.117.3-.22.188-.33.508-.33.96 0 .419.104.728.314.928.21.199.588.299 1.133.299z"/><path style="opacity:1;fill:#ff109b;fill-opacity:1;stroke:none;stroke-width:.114524;stroke-opacity:1" d="M54.773 25.27c-.575-.3-1.24-.459-1.917-.459-.778 0-1.535.21-2.16.599a1.378 1.378 0 0 0-2.458.853c0 .618.411 1.086.767 1.253-.012.26.154.533.13.682-.522-.295-1.563-.801-2.148-.081-.446.699-.443 1.259-.06 1.712.247.293 1.484 1.057 1.755 1.315.358.341-.192-.224-.321.187-.422.19-.73.499-.88.88-.387.994.377 2.22 1.707 2.738 1.33.518 2.722.133 3.11-.86l.022-.063c.17.017.341.026.512.027.141 0 .282-.007.423-.018l.018.054c.388.993 1.78 1.378 3.11.86 1.33-.519 2.094-1.744 1.706-2.738-.14-.357-.42-.651-.804-.844.234-.155.093-.309.09-.544.34-.102.484-.287.859-.528.585-.376.543-1.415.186-1.88-.517-.672-1.366-.494-1.95-.119.062-.354.044-.467-.021-.863.689-.159 1.173-.735 1.174-1.398 0-.795-.691-1.44-1.383-1.44-.692.001-1.185.256-1.467.676z"/><path style="fill:#000;fill-opacity:1;stroke-width:.941374" d="M70 26.37c.556 0 .94-.095 1.15-.284.209-.189.314-.503.314-.944 0-.44-.11-.76-.33-.96-.21-.2-.588-.299-1.134-.299-.514 0-.886.1-1.117.3-.22.188-.33.508-.33.96 0 .419.104.728.314.928.21.199.588.299 1.133.299z"/></g></svg>