<?xml version="1.0" encoding="UTF-8" standalone="no"?>
<!-- Created with Inkscape (http://www.inkscape.org/) -->

<svg
   width="58.281208mm"
   height="21.083055mm"
   viewBox="0 0 58.281208 21.083055"
   version="1.1"
   id="svg5"
   xmlns:inkscape="http://www.inkscape.org/namespaces/inkscape"
   xmlns:sodipodi="http://sodipodi.sourceforge.net/DTD/sodipodi-0.dtd"
   xmlns:xlink="http://www.w3.org/1999/xlink"
   xmlns="http://www.w3.org/2000/svg"
   xmlns:svg="http://www.w3.org/2000/svg">
  <sodipodi:namedview
     id="namedview7"
     pagecolor="#ffffff"
     bordercolor="#666666"
     borderopacity="1.0"
     inkscape:showpageshadow="2"
     inkscape:pageopacity="0.0"
     inkscape:pagecheckerboard="0"
     inkscape:deskcolor="#d1d1d1"
     inkscape:document-units="mm"
     showgrid="false" />
  <defs
     id="defs2">
    <linearGradient
       inkscape:collect="always"
       id="linearGradient2785">
      <stop
         style="stop-color:#ebedff;stop-opacity:1;"
         offset="0"
         id="stop2781" />
      <stop
         style="stop-color:#ffffff;stop-opacity:1;"
         offset="1"
         id="stop2783" />
    </linearGradient>
    <linearGradient
       inkscape:collect="always"
       xlink:href="#linearGradient2785"
       id="linearGradient2787"
       x1="51.308453"
       y1="17.438429"
       x2="67.498405"
       y2="51.832008"
       gradientUnits="userSpaceOnUse"
       gradientTransform="matrix(1.4477086,0,0,1.4477086,-6.5071421,-12.203782)" />
    <filter
       inkscape:collect="always"
       style="color-interpolation-filters:sRGB"
       id="filter3533"
       x="-0.020626966"
       y="-0.061496541"
       width="1.0412539"
       height="1.1229931">
      <feGaussianBlur
         inkscape:collect="always"
         stdDeviation="0.33228816"
         id="feGaussianBlur3535" />
    </filter>
  </defs>
  <g
     inkscape:label="Layer 1"
     inkscape:groupmode="layer"
     id="layer1"
     transform="translate(-49.426366,-22.27374)">
    <rect
       style="mix-blend-mode:normal;fill:#000000;fill-opacity:0.45339;stroke-width:0.264583;filter:url(#filter3533)"
       id="rect3531"
       width="38.662571"
       height="12.968072"
       x="50.223854"
       y="23.07123"
       ry="4.0273519"
       inkscape:export-filename="gighug.svg"
       inkscape:export-xdpi="96"
       inkscape:export-ydpi="96"
       transform="matrix(1.4477086,0,0,1.4477086,-22.128607,-9.9721441)" />
    <rect
       style="fill:url(#linearGradient2787);fill-opacity:1;stroke-width:0.383039"
       id="rect1820"
       width="55.972137"
       height="18.773989"
       x="49.814819"
       y="22.662193"
       ry="5.8304319" />
    <g
       id="g2803"
       transform="matrix(1.4477086,0,0,1.4477086,-6.5996843,-11.913768)">
      <g
         aria-label="hug"
         id="text167-1"
         style="font-weight:900;font-size:10.5833px;line-height:1.25;font-family:Kanit;-inkscape-font-specification:'Kanit Heavy';letter-spacing:-0.264583px;word-spacing:0px;fill:#ff109b;stroke-width:0.264583">
        <path
           d="m 55.993295,33.00251 v -7.133144 h 2.561158 v 2.307159 q 0.211666,-0.116416 0.560915,-0.201082 0.359832,-0.09525 0.751414,-0.09525 1.068913,0 1.566329,0.497415 0.497415,0.497415 0.497415,1.534579 v 3.090323 h -2.561159 v -2.878657 q 0,-0.359833 -0.349249,-0.359833 -0.105833,0 -0.253999,0.0635 -0.137583,0.0635 -0.211666,0.148166 v 3.026824 z"
           id="path3647" />
        <path
           d="m 64.142429,33.108343 q -0.846664,0 -1.344079,-0.497415 -0.497415,-0.497415 -0.497415,-1.449912 v -3.17499 h 2.561158 v 2.899824 q 0,0.338666 0.349249,0.338666 0.116416,0 0.253999,-0.0635 0.137583,-0.0635 0.211666,-0.148166 v -3.026824 h 2.561159 v 5.016484 h -2.402409 l -0.05292,-0.285749 q -0.275166,0.169333 -0.709081,0.285749 -0.423332,0.105833 -0.93133,0.105833 z"
           id="path3649" />
        <path
           d="m 71.074484,34.865171 q -0.370416,0 -0.836081,-0.03175 -0.465665,-0.02117 -0.888997,-0.08467 -0.423332,-0.05292 -0.666748,-0.137583 v -1.460496 q 0.285749,0.09525 0.677331,0.148166 0.391582,0.0635 0.804331,0.08467 0.412748,0.03175 0.751414,0.03175 0.402165,0 0.709081,-0.03175 0.306916,-0.03175 0.306916,-0.137583 0,-0.08467 -0.127,-0.105833 -0.116416,-0.01058 -0.317499,-0.01058 h -1.206496 q -0.878414,0 -1.333496,-0.232833 -0.444498,-0.232833 -0.444498,-0.751414 0,-0.370416 0.222249,-0.613832 0.222249,-0.253999 0.613831,-0.370415 -0.423332,-0.222249 -0.613831,-0.539748 -0.190499,-0.317499 -0.190499,-0.836081 0,-0.984247 0.719664,-1.439329 0.719664,-0.465665 2.02141,-0.465665 0.1905,0 0.423332,0.02117 0.243416,0.01058 0.444499,0.04233 0.211666,0.02117 0.306915,0.04233 h 2.042577 l -0.04233,1.513412 h -0.550331 q 0.02117,0.0635 0.04233,0.158749 0.02117,0.08467 0.02117,0.15875 0,0.772581 -0.423332,1.217079 -0.412748,0.433916 -1.386412,0.433916 -0.105833,0 -0.264582,0 -0.15875,-0.01058 -0.275166,-0.02117 -0.148166,0.01058 -0.275166,0.05292 -0.116416,0.03175 -0.116416,0.137582 0,0.08467 0.07408,0.116417 0.07408,0.02117 0.201083,0.02117 h 0.888997 q 0.783164,0 1.259412,0.349249 0.476249,0.338666 0.476249,1.079497 0,0.730247 -0.719665,1.195913 -0.709081,0.465665 -2.328325,0.465665 z m 0.222249,-4.773068 q 0.296332,0 0.402165,-0.09525 0.116417,-0.09525 0.116417,-0.317499 0,-0.232833 -0.127,-0.328082 -0.116416,-0.105833 -0.391582,-0.105833 -0.518582,0 -0.518582,0.433915 0,0.211666 0.116416,0.317499 0.116417,0.09525 0.402166,0.09525 z"
           id="path3651" />
      </g>
      <g
         aria-label="gig"
         id="text113-8"
         style="font-weight:600;font-size:10.5833px;line-height:1.25;font-family:Kanit;-inkscape-font-specification:'Kanit Semi-Bold';letter-spacing:0px;word-spacing:0px;stroke-width:0.264583">
        <path
           d="m 44.45544,34.865171 q -0.370415,0 -0.783164,-0.03175 -0.412749,-0.03175 -0.783164,-0.09525 -0.370416,-0.0635 -0.634998,-0.148166 v -1.164163 q 0.423332,0.137583 1.015996,0.211666 0.592665,0.07408 1.09008,0.07408 0.645582,0 0.963081,-0.07408 0.328082,-0.0635 0.328082,-0.232833 0,-0.148166 -0.127,-0.201082 -0.126999,-0.05292 -0.497415,-0.05292 h -1.386412 q -0.677331,0 -1.05833,-0.243416 -0.370416,-0.243416 -0.370416,-0.709081 0,-0.317499 0.1905,-0.603248 0.201083,-0.285749 0.582081,-0.423332 -0.433915,-0.222249 -0.656164,-0.560915 -0.22225,-0.338665 -0.22225,-0.857247 0,-0.973663 0.624415,-1.418162 0.634998,-0.455082 1.852078,-0.455082 0.253999,0 0.560914,0.04233 0.317499,0.03175 0.465666,0.0635 h 1.92616 l -0.04233,1.05833 h -0.730248 q 0.264583,0.264582 0.264583,0.783164 0,0.730248 -0.476249,1.174746 -0.465665,0.444499 -1.418162,0.444499 -0.158749,0 -0.317499,-0.01058 -0.148166,-0.02117 -0.296332,-0.03175 -0.275166,0.03175 -0.476249,0.116416 -0.190499,0.08467 -0.190499,0.243416 0,0.127 0.09525,0.169333 0.105833,0.04233 0.306915,0.04233 h 1.28058 q 0.77258,0 1.195912,0.359832 0.433916,0.349249 0.433916,1.02658 0,1.502829 -2.709325,1.502829 z m 0.137583,-4.36032 q 0.560915,0 0.772581,-0.190499 0.211666,-0.190499 0.211666,-0.634998 0,-0.444499 -0.22225,-0.645581 -0.211666,-0.201083 -0.761997,-0.201083 -0.518582,0 -0.751414,0.201083 -0.22225,0.190499 -0.22225,0.645581 0,0.423332 0.211666,0.624415 0.211666,0.201082 0.761998,0.201082 z"
           id="path3640" />
        <path
           d="m 48.328929,27.192279 v -1.28058 h 1.852077 v 1.28058 z m 0.137583,5.810231 v -3.757071 h -0.740831 l 0.148166,-1.259413 h 2.296576 v 5.016484 z"
           id="path3642" />
        <path
           d="m 52.759496,34.865171 q -0.370415,0 -0.783164,-0.03175 -0.412749,-0.03175 -0.783164,-0.09525 -0.370416,-0.0635 -0.634998,-0.148166 v -1.164163 q 0.423332,0.137583 1.015997,0.211666 0.592664,0.07408 1.090079,0.07408 0.645582,0 0.963081,-0.07408 0.328082,-0.0635 0.328082,-0.232833 0,-0.148166 -0.127,-0.201082 -0.126999,-0.05292 -0.497415,-0.05292 h -1.386412 q -0.677331,0 -1.05833,-0.243416 -0.370415,-0.243416 -0.370415,-0.709081 0,-0.317499 0.190499,-0.603248 0.201083,-0.285749 0.582082,-0.423332 -0.433916,-0.222249 -0.656165,-0.560915 -0.222249,-0.338665 -0.222249,-0.857247 0,-0.973663 0.624414,-1.418162 0.634998,-0.455082 1.852078,-0.455082 0.253999,0 0.560915,0.04233 0.317499,0.03175 0.465665,0.0635 h 1.92616 l -0.04233,1.05833 h -0.730247 q 0.264582,0.264582 0.264582,0.783164 0,0.730248 -0.476248,1.174746 -0.465666,0.444499 -1.418163,0.444499 -0.158749,0 -0.317499,-0.01058 -0.148166,-0.02117 -0.296332,-0.03175 -0.275166,0.03175 -0.476249,0.116416 -0.190499,0.08467 -0.190499,0.243416 0,0.127 0.09525,0.169333 0.105833,0.04233 0.306915,0.04233 h 1.28058 q 0.772581,0 1.195913,0.359832 0.433915,0.349249 0.433915,1.02658 0,1.502829 -2.709325,1.502829 z m 0.137583,-4.36032 q 0.560915,0 0.772581,-0.190499 0.211666,-0.190499 0.211666,-0.634998 0,-0.444499 -0.222249,-0.645581 -0.211666,-0.201083 -0.761998,-0.201083 -0.518582,0 -0.751414,0.201083 -0.222249,0.190499 -0.222249,0.645581 0,0.423332 0.211666,0.624415 0.211665,0.201082 0.761997,0.201082 z"
           id="path3644" />
      </g>
    </g>
  </g>
</svg>
